<mxfile host="app.diagrams.net" modified="2023-12-29T19:44:12.128Z" agent="Mozilla/5.0 (Windows NT 10.0; Win64; x64; rv:121.0) Gecko/20100101 Firefox/121.0" etag="nhhcoWdHkLyiuR-qULqc" version="22.1.16" type="device">
  <diagram name="Page-1" id="rJr7rbngYW7CNVBiUUf4">
    <mxGraphModel dx="805" dy="1091" grid="1" gridSize="10" guides="1" tooltips="1" connect="1" arrows="1" fold="1" page="1" pageScale="1" pageWidth="850" pageHeight="1100" math="0" shadow="0">
      <root>
        <mxCell id="0" />
        <mxCell id="1" parent="0" />
        <mxCell id="SpqbjFcRqUdl_g0yKuFr-2" value="" style="ellipse;shape=cloud;whiteSpace=wrap;html=1;" vertex="1" parent="1">
          <mxGeometry x="120" y="200" width="120" height="80" as="geometry" />
        </mxCell>
        <mxCell id="SpqbjFcRqUdl_g0yKuFr-1" value="MongoDB" style="shape=cylinder3;whiteSpace=wrap;html=1;boundedLbl=1;backgroundOutline=1;size=15;" vertex="1" parent="1">
          <mxGeometry x="180" y="230" width="90" height="80" as="geometry" />
        </mxCell>
        <mxCell id="SpqbjFcRqUdl_g0yKuFr-6" value="Supervised Machine Learning" style="label;whiteSpace=wrap;html=1;align=center;verticalAlign=bottom;spacingLeft=0;spacingBottom=4;imageAlign=center;imageVerticalAlign=top;image=img/clipart/Gear_128x128.png" vertex="1" parent="1">
          <mxGeometry x="520" y="120" width="130" height="100" as="geometry" />
        </mxCell>
        <mxCell id="SpqbjFcRqUdl_g0yKuFr-7" value="Unsupervised Clustering" style="label;whiteSpace=wrap;html=1;align=center;verticalAlign=bottom;spacingLeft=0;spacingBottom=4;imageAlign=center;imageVerticalAlign=top;image=img/clipart/Gear_128x128.png" vertex="1" parent="1">
          <mxGeometry x="520" y="270" width="130" height="100" as="geometry" />
        </mxCell>
        <mxCell id="SpqbjFcRqUdl_g0yKuFr-8" value="" style="endArrow=classic;startArrow=classic;html=1;rounded=0;entryX=0;entryY=0.5;entryDx=0;entryDy=0;" edge="1" parent="1" target="SpqbjFcRqUdl_g0yKuFr-6">
          <mxGeometry width="50" height="50" relative="1" as="geometry">
            <mxPoint x="270" y="260" as="sourcePoint" />
            <mxPoint x="390" y="190" as="targetPoint" />
          </mxGeometry>
        </mxCell>
        <mxCell id="SpqbjFcRqUdl_g0yKuFr-10" value="Read / Write" style="edgeLabel;html=1;align=center;verticalAlign=middle;resizable=0;points=[];" vertex="1" connectable="0" parent="SpqbjFcRqUdl_g0yKuFr-8">
          <mxGeometry x="-0.1392" y="-1" relative="1" as="geometry">
            <mxPoint as="offset" />
          </mxGeometry>
        </mxCell>
        <mxCell id="SpqbjFcRqUdl_g0yKuFr-9" value="" style="endArrow=classic;startArrow=classic;html=1;rounded=0;entryX=0;entryY=0.5;entryDx=0;entryDy=0;exitX=1;exitY=0.5;exitDx=0;exitDy=0;exitPerimeter=0;" edge="1" parent="1" source="SpqbjFcRqUdl_g0yKuFr-1" target="SpqbjFcRqUdl_g0yKuFr-7">
          <mxGeometry width="50" height="50" relative="1" as="geometry">
            <mxPoint x="370" y="360" as="sourcePoint" />
            <mxPoint x="420" y="310" as="targetPoint" />
          </mxGeometry>
        </mxCell>
        <mxCell id="SpqbjFcRqUdl_g0yKuFr-11" value="Read / Write" style="edgeLabel;html=1;align=center;verticalAlign=middle;resizable=0;points=[];" vertex="1" connectable="0" parent="SpqbjFcRqUdl_g0yKuFr-9">
          <mxGeometry x="-0.1238" y="-2" relative="1" as="geometry">
            <mxPoint as="offset" />
          </mxGeometry>
        </mxCell>
        <mxCell id="SpqbjFcRqUdl_g0yKuFr-22" value="" style="group" vertex="1" connectable="0" parent="1">
          <mxGeometry x="200" y="430" width="380" height="220" as="geometry" />
        </mxCell>
        <mxCell id="SpqbjFcRqUdl_g0yKuFr-21" value="Visualizations" style="label;whiteSpace=wrap;html=1;align=center;verticalAlign=bottom;spacingLeft=0;spacingBottom=4;imageAlign=center;imageVerticalAlign=top;image=img/clipart/Gear_128x128.png" vertex="1" parent="SpqbjFcRqUdl_g0yKuFr-22">
          <mxGeometry width="370" height="180" as="geometry" />
        </mxCell>
        <mxCell id="SpqbjFcRqUdl_g0yKuFr-19" value="" style="group" vertex="1" connectable="0" parent="SpqbjFcRqUdl_g0yKuFr-22">
          <mxGeometry x="20" y="10" width="360" height="210" as="geometry" />
        </mxCell>
        <mxCell id="SpqbjFcRqUdl_g0yKuFr-3" value="" style="ellipse;whiteSpace=wrap;html=1;strokeWidth=2;fillWeight=2;hachureGap=8;fillColor=#990000;fillStyle=dots;shadow=0;sketch=1;curveFitting=1;jiggle=2;" vertex="1" parent="SpqbjFcRqUdl_g0yKuFr-19">
          <mxGeometry x="60" y="70" width="100" height="50" as="geometry" />
        </mxCell>
        <mxCell id="SpqbjFcRqUdl_g0yKuFr-4" value="" style="ellipse;whiteSpace=wrap;html=1;strokeWidth=2;fillWeight=2;hachureGap=8;fillColor=#8000ff;fillStyle=dots;sketch=1;" vertex="1" parent="SpqbjFcRqUdl_g0yKuFr-19">
          <mxGeometry x="190" y="70" width="90" height="50" as="geometry" />
        </mxCell>
        <mxCell id="SpqbjFcRqUdl_g0yKuFr-23" value="" style="endArrow=classic;html=1;rounded=0;exitX=0.744;exitY=1;exitDx=0;exitDy=0;exitPerimeter=0;entryX=0.478;entryY=-0.022;entryDx=0;entryDy=0;entryPerimeter=0;" edge="1" parent="1" source="SpqbjFcRqUdl_g0yKuFr-1" target="SpqbjFcRqUdl_g0yKuFr-21">
          <mxGeometry width="50" height="50" relative="1" as="geometry">
            <mxPoint x="250" y="410" as="sourcePoint" />
            <mxPoint x="300" y="360" as="targetPoint" />
          </mxGeometry>
        </mxCell>
        <mxCell id="SpqbjFcRqUdl_g0yKuFr-24" value="" style="swimlane;startSize=0;" vertex="1" parent="1">
          <mxGeometry x="100" y="90" width="580" height="550" as="geometry">
            <mxRectangle x="100" y="90" width="50" height="40" as="alternateBounds" />
          </mxGeometry>
        </mxCell>
      </root>
    </mxGraphModel>
  </diagram>
</mxfile>
